HIERARCHY
ROOT Root
{
  OFFSET 0.0 0.0 0.0
  CHANNELS 6 Xposition Yposition Zposition Zrotation Yrotation Xrotation
  JOINT Hips
  {
    OFFSET 0.0 100.0 0.0
    CHANNELS 6 Xposition Yposition Zposition Zrotation Yrotation Xrotation
    JOINT Spine1
    {
      OFFSET 5.003913 -0.037094 -0.013727
      CHANNELS 3 Zrotation Yrotation Xrotation
      JOINT Spine2
      {
        OFFSET 7.125363 -1e-06 0.0
        CHANNELS 3 Zrotation Yrotation Xrotation
        JOINT Chest
        {
          OFFSET 7.594027 1e-06 0.0
          CHANNELS 3 Zrotation Yrotation Xrotation
          JOINT Neck1
          {
            OFFSET 26.313086 -0.460272 -0.181672
            CHANNELS 3 Zrotation Yrotation Xrotation
            JOINT Neck2
            {
              OFFSET 8.045911 0.0 0.0
              CHANNELS 3 Zrotation Yrotation Xrotation
              JOINT Head
              {
                OFFSET 6.432774 0.0 0.0
                CHANNELS 3 Zrotation Yrotation Xrotation
                JOINT HeadEnd
                {
                  OFFSET 16.169773 0.06451 0.00362
                  CHANNELS 3 Zrotation Yrotation Xrotation
                }
                JOINT Jaw
                {
                  OFFSET 0.108741 3.12938 0.002639
                  CHANNELS 3 Zrotation Yrotation Xrotation
                }
                JOINT LeftEye
                {
                  OFFSET 4.45173 8.166359 3.206392
                  CHANNELS 3 Zrotation Yrotation Xrotation
                }
                JOINT RightEye
                {
                  OFFSET 4.436895 8.135758 -3.222429
                  CHANNELS 3 Zrotation Yrotation Xrotation
                }
              }
            }
          }
          JOINT LeftShoulder
          {
            OFFSET 23.218927 5.195579 1.621656
            CHANNELS 3 Zrotation Yrotation Xrotation
            JOINT LeftArm
            {
              OFFSET 15.902118 2e-06 -2e-06
              CHANNELS 3 Zrotation Yrotation Xrotation
              JOINT LeftForeArm
              {
                OFFSET 28.739307 0.0 -1e-06
                CHANNELS 3 Zrotation Yrotation Xrotation
                JOINT LeftHand
                {
                  OFFSET 27.093981 -4e-06 0.0
                  CHANNELS 3 Zrotation Yrotation Xrotation
                  JOINT LeftHandThumb1
                  {
                    OFFSET 2.276781 3.380274 0.83384
                    CHANNELS 3 Zrotation Yrotation Xrotation
                    JOINT LeftHandThumb2
                    {
                      OFFSET 4.705309 -1e-06 -1e-06
                      CHANNELS 3 Zrotation Yrotation Xrotation
                      JOINT LeftHandThumb3
                      {
                        OFFSET 2.798515 0.0 3e-06
                        CHANNELS 3 Zrotation Yrotation Xrotation
                        JOINT LeftHandThumbEnd
                        {
                          OFFSET 3.180793 4e-06 -4e-06
                          CHANNELS 3 Zrotation Yrotation Xrotation
                        }
                      }
                    }
                  }
                  JOINT LeftHandIndex1
                  {
                    OFFSET 3.247786 2.352677 0.137192
                    CHANNELS 3 Zrotation Yrotation Xrotation
                    JOINT LeftHandIndex2
                    {
                      OFFSET 6.367095 1e-06 0.0
                      CHANNELS 3 Zrotation Yrotation Xrotation
                      JOINT LeftHandIndex3
                      {
                        OFFSET 3.662364 0.0 0.0
                        CHANNELS 3 Zrotation Yrotation Xrotation
                        JOINT LeftHandIndex4
                        {
                          OFFSET 2.329242 4e-06 -4e-06
                          CHANNELS 3 Zrotation Yrotation Xrotation
                          JOINT LeftHandIndexEnd
                          {
                            OFFSET 2.767823 1e-06 0.0
                            CHANNELS 3 Zrotation Yrotation Xrotation
                          }
                        }
                      }
                    }
                  }
                  JOINT LeftHandMiddle1
                  {
                    OFFSET 3.163612 0.945023 -0.406112
                    CHANNELS 3 Zrotation Yrotation Xrotation
                    JOINT LeftHandMiddle2
                    {
                      OFFSET 6.276789 3e-06 0.0
                      CHANNELS 3 Zrotation Yrotation Xrotation
                      JOINT LeftHandMiddle3
                      {
                        OFFSET 4.35652 -1e-06 4e-06
                        CHANNELS 3 Zrotation Yrotation Xrotation
                        JOINT LeftHandMiddle4
                        {
                          OFFSET 2.996877 0.0 8e-06
                          CHANNELS 3 Zrotation Yrotation Xrotation
                          JOINT LeftHandMiddleEnd
                          {
                            OFFSET 2.323256 3e-06 -4e-06
                            CHANNELS 3 Zrotation Yrotation Xrotation
                          }
                        }
                      }
                    }
                  }
                  JOINT LeftHandRing1
                  {
                    OFFSET 2.882606 -0.309162 0.107445
                    CHANNELS 3 Zrotation Yrotation Xrotation
                    JOINT LeftHandRing2
                    {
                      OFFSET 6.033198 0.0 4e-06
                      CHANNELS 3 Zrotation Yrotation Xrotation
                      JOINT LeftHandRing3
                      {
                        OFFSET 4.350578 3e-06 0.0
                        CHANNELS 3 Zrotation Yrotation Xrotation
                        JOINT LeftHandRing4
                        {
                          OFFSET 2.651321 2e-06 -7e-06
                          CHANNELS 3 Zrotation Yrotation Xrotation
                          JOINT LeftHandRingEnd
                          {
                            OFFSET 1.937663 1e-06 -4e-06
                            CHANNELS 3 Zrotation Yrotation Xrotation
                          }
                        }
                      }
                    }
                  }
                  JOINT LeftHandPinky1
                  {
                    OFFSET 2.865315 -1.525436 0.575687
                    CHANNELS 3 Zrotation Yrotation Xrotation
                    JOINT LeftHandPinky2
                    {
                      OFFSET 5.54936 1e-06 -8e-06
                      CHANNELS 3 Zrotation Yrotation Xrotation
                      JOINT LeftHandPinky3
                      {
                        OFFSET 3.070974 0.0 -4e-06
                        CHANNELS 3 Zrotation Yrotation Xrotation
                        JOINT LeftHandPinky4
                        {
                          OFFSET 1.549672 1e-06 0.0
                          CHANNELS 3 Zrotation Yrotation Xrotation
                          JOINT LeftHandPinkyEnd
                          {
                            OFFSET 1.952123 0.0 0.0
                            CHANNELS 3 Zrotation Yrotation Xrotation
                          }
                        }
                      }
                    }
                  }
                }
              }
            }
          }
          JOINT RightShoulder
          {
            OFFSET 23.161716 5.296122 -1.380114
            CHANNELS 3 Zrotation Yrotation Xrotation
            JOINT RightArm
            {
              OFFSET -16.027195 -2e-06 1.1e-05
              CHANNELS 3 Zrotation Yrotation Xrotation
              JOINT RightForeArm
              {
                OFFSET -28.736639 4e-06 2e-06
                CHANNELS 3 Zrotation Yrotation Xrotation
                JOINT RightHand
                {
                  OFFSET -27.133619 6e-06 0.0
                  CHANNELS 3 Zrotation Yrotation Xrotation
                  JOINT RightHandThumb1
                  {
                    OFFSET -2.274328 -3.351035 -0.83067
                    CHANNELS 3 Zrotation Yrotation Xrotation
                    JOINT RightHandThumb2
                    {
                      OFFSET -4.703594 -3e-06 2e-06
                      CHANNELS 3 Zrotation Yrotation Xrotation
                      JOINT RightHandThumb3
                      {
                        OFFSET -2.794935 -4e-06 -3e-06
                        CHANNELS 3 Zrotation Yrotation Xrotation
                        JOINT RightHandThumbEnd
                        {
                          OFFSET -3.183852 4e-06 1e-06
                          CHANNELS 3 Zrotation Yrotation Xrotation
                        }
                      }
                    }
                  }
                  JOINT RightHandIndex1
                  {
                    OFFSET -3.253496 -2.33755 -0.127667
                    CHANNELS 3 Zrotation Yrotation Xrotation
                    JOINT RightHandIndex2
                    {
                      OFFSET -6.344434 0.0 0.0
                      CHANNELS 3 Zrotation Yrotation Xrotation
                      JOINT RightHandIndex3
                      {
                        OFFSET -3.654871 0.0 -8e-06
                        CHANNELS 3 Zrotation Yrotation Xrotation
                        JOINT RightHandIndex4
                        {
                          OFFSET -2.327586 -1e-06 0.0
                          CHANNELS 3 Zrotation Yrotation Xrotation
                          JOINT RightHandIndexEnd
                          {
                            OFFSET -2.770001 3e-06 8e-06
                            CHANNELS 3 Zrotation Yrotation Xrotation
                          }
                        }
                      }
                    }
                  }
                  JOINT RightHandMiddle1
                  {
                    OFFSET -3.168223 -0.944764 0.411762
                    CHANNELS 3 Zrotation Yrotation Xrotation
                    JOINT RightHandMiddle2
                    {
                      OFFSET -6.266691 -1e-06 -4e-06
                      CHANNELS 3 Zrotation Yrotation Xrotation
                      JOINT RightHandMiddle3
                      {
                        OFFSET -4.348901 0.0 0.0
                        CHANNELS 3 Zrotation Yrotation Xrotation
                        JOINT RightHandMiddle4
                        {
                          OFFSET -3.00024 2e-06 -4e-06
                          CHANNELS 3 Zrotation Yrotation Xrotation
                          JOINT RightHandMiddleEnd
                          {
                            OFFSET -2.321477 -4e-06 -4e-06
                            CHANNELS 3 Zrotation Yrotation Xrotation
                          }
                        }
                      }
                    }
                  }
                  JOINT RightHandRing1
                  {
                    OFFSET -2.885654 0.293261 -0.119232
                    CHANNELS 3 Zrotation Yrotation Xrotation
                    JOINT RightHandRing2
                    {
                      OFFSET -6.032835 -1e-06 -4e-06
                      CHANNELS 3 Zrotation Yrotation Xrotation
                      JOINT RightHandRing3
                      {
                        OFFSET -4.33881 0.0 -4e-06
                        CHANNELS 3 Zrotation Yrotation Xrotation
                        JOINT RightHandRing4
                        {
                          OFFSET -2.654903 -4e-06 -4e-06
                          CHANNELS 3 Zrotation Yrotation Xrotation
                          JOINT RightHandRingEnd
                          {
                            OFFSET -1.935122 0.0 4e-06
                            CHANNELS 3 Zrotation Yrotation Xrotation
                          }
                        }
                      }
                    }
                  }
                  JOINT RightHandPinky1
                  {
                    OFFSET -2.866241 1.503904 -0.60527
                    CHANNELS 3 Zrotation Yrotation Xrotation
                    JOINT RightHandPinky2
                    {
                      OFFSET -5.553177 -2e-06 0.0
                      CHANNELS 3 Zrotation Yrotation Xrotation
                      JOINT RightHandPinky3
                      {
                        OFFSET -3.062664 -1e-06 -4e-06
                        CHANNELS 3 Zrotation Yrotation Xrotation
                        JOINT RightHandPinky4
                        {
                          OFFSET -1.546529 2e-06 4e-06
                          CHANNELS 3 Zrotation Yrotation Xrotation
                          JOINT RightHandPinkyEnd
                          {
                            OFFSET -1.952341 0.0 -4e-06
                            CHANNELS 3 Zrotation Yrotation Xrotation
                          }
                        }
                      }
                    }
                  }
                }
              }
            }
          }
        }
      }
    }
    JOINT LeftLeg
    {
      OFFSET -8.443107 2.567604 10.043214
      CHANNELS 3 Zrotation Yrotation Xrotation
      JOINT LeftShin
      {
        OFFSET 43.229198 1e-06 -1e-06
        CHANNELS 3 Zrotation Yrotation Xrotation
        JOINT LeftFoot
        {
          OFFSET 42.298611 1e-06 1e-06
          CHANNELS 3 Zrotation Yrotation Xrotation
          JOINT LeftToeBase
          {
            OFFSET 14.165858 1e-06 0.0
            CHANNELS 3 Zrotation Yrotation Xrotation
            JOINT LeftToeEnd
            {
              OFFSET 6.7141 -0.234461 0.0
              CHANNELS 3 Zrotation Yrotation Xrotation
            }
          }
        }
      }
    }
    JOINT RightLeg
    {
      OFFSET -8.303923 2.592729 -10.047278
      CHANNELS 3 Zrotation Yrotation Xrotation
      JOINT RightShin
      {
        OFFSET -43.369682 0.0 1e-06
        CHANNELS 3 Zrotation Yrotation Xrotation
        JOINT RightFoot
        {
          OFFSET -42.260784 4e-06 2e-06
          CHANNELS 3 Zrotation Yrotation Xrotation
          JOINT RightToeBase
          {
            OFFSET -14.222245 -2e-06 -1e-06
            CHANNELS 3 Zrotation Yrotation Xrotation
            JOINT RightToeEnd
            {
              OFFSET -6.660062 0.232574 -2e-06
              CHANNELS 3 Zrotation Yrotation Xrotation
            }
          }
        }
      }
    }
  }
}
MOTION
Frames: 4
Frame Time: 0.03333333333333333
0.0 0.0 0.0 0.0 -0.0 0.0 12.629068 99.445412 1.196234 91.40361 -0.167348 -128.326385 0.350698 -1.415671 -0.23577 -10.958375 -0.404788 -0.501895 17.510494 1.01654 -2.410439 21.042021 -3.757807 2.666823 -2.593173 -0.426398 7.009516 -33.443047 -0.886782 9.093749 -0.000127 0.000657 0.005256 0.057161 0.012546 0.095312 0.08663 -0.00368 0.127405 0.11739 0.023573 0.081926 -117.975212 -75.344086 136.126373 38.179073 -50.762005 10.336331 44.109905 0.792327 0.09463 -7.699123 11.812814 -2.676059 17.632057 -26.245604 52.341984 -19.41489 -14.361909 29.343901 0.003675 -8.756954 -0.008853 16.410051 -18.409363 6.011935 -0.608629 -1.786266 -3.877357 -4.804618 -11.027081 -2.935265 -0.01069 -20.936241 -0.000305 -5.013144 -24.999269 -4.033876 -0.0067 0.000718 -0.0 -10.62433 -5.675415 -3.554052 10.54756 -17.880621 -3.099736 0.004694 -13.797982 -0.001306 -0.51461 -31.097712 -4.005858 -11.708446 -59.925579 7.361307 -13.975963 -7.133535 -2.865811 13.756735 -8.387037 -3.205939 0.359378 -34.168514 0.750898 -0.958705 -17.703671 2.615084 -0.004209 -0.002428 0.000499 -17.334362 -20.067619 -4.194571 21.733988 -1.634473 3.868582 0.005792 -6.329602 0.000238 -1.702807 -22.537054 -6.186322 -0.001325 0.00131 0.00092 58.62973 -76.161835 137.70903 34.929291 -51.824551 17.969772 45.846371 0.041551 0.327619 1.192962 2.245329 16.784304 22.222141 -20.406494 50.030956 -16.677219 -16.732576 28.487686 0.005025 -12.68715 -0.010739 15.848228 -17.451105 2.794142 -0.10315 -1.504764 -4.264298 -5.04841 -5.617811 -2.960898 0.001064 -11.018495 0.000651 -6.106256 -15.904955 -3.83573 -0.001192 -0.002756 -0.005148 -10.277887 -5.674114 -4.339149 11.008722 -11.294133 -2.366637 -1.384341 -14.236675 -6.319231 -0.657609 -26.884064 -3.827062 -4.500704 -49.222733 -3.29197 -13.696994 -7.35528 -3.726184 18.105818 -14.041196 -3.222866 -0.01507 -18.783319 0.000555 -0.440158 -8.459567 2.560526 -0.004836 -0.000251 -0.002141 -15.91854 -20.094238 -5.482185 30.380527 -7.177122 1.763695 0.001477 -8.161583 -0.001405 -1.883631 -22.858908 -6.166431 0.004935 -0.009869 -0.002927 173.578171 0.060137 4.312245 21.953241 -0.139478 0.333615 -81.713333 22.045282 4.360802 -4.589747 1.172177 2.077415 -0.997363 0.005708 0.003976 -11.873703 -6.619586 12.780774 22.149788 -0.189814 0.227825 -78.889839 7.207878 -3.560982 -7.512323 0.705401 1.659778 -0.996571 -0.008169 -0.001309 
0.0 0.0 0.0 0.0 -0.0 0.0 13.707653 99.282677 1.582335 91.295128 -0.233955 -123.845703 0.552443 -1.45602 -0.320703 -10.826084 -0.408217 -0.478279 17.373514 0.911286 -2.210049 20.538727 -3.511478 2.680518 -2.552938 -0.354815 6.75815 -33.918781 -0.678374 8.804972 0.000155 0.001907 -0.002032 0.019243 0.023334 0.148431 0.046309 0.00237 0.172653 0.080441 0.029613 0.116371 -117.892685 -76.18943 135.63533 37.483486 -51.234997 11.225801 42.958546 0.676473 -0.006882 -7.518122 11.01178 -3.019134 17.620794 -26.337542 52.441368 -19.436867 -14.400791 29.396189 0.006025 -8.77704 6.2e-05 16.425255 -18.323748 5.914155 -0.60938 -1.798635 -3.887249 -4.820866 -11.055592 -2.92461 -0.003626 -21.00486 0.003738 -5.032307 -25.074263 -4.037707 -0.004909 0.006274 0.001545 -10.657065 -5.699687 -3.54663 10.59631 -17.921303 -3.129392 -0.00774 -13.833438 0.0052 -0.508759 -31.213501 -4.040165 -11.765615 -60.05875 7.204861 -14.010485 -7.150156 -2.860354 13.796844 -8.396063 -3.222084 0.328823 -34.260578 0.777636 -0.984948 -17.750736 2.619871 0.001547 -0.002578 0.002881 -17.380207 -20.11338 -4.186239 21.775209 -1.626369 3.868343 -0.00948 -6.34849 0.006141 -1.708277 -22.608969 -6.201613 0.002646 -0.014428 0.004026 60.004292 -77.001762 136.657669 35.414444 -52.111534 18.116396 45.719734 0.042059 0.377456 0.453256 1.933415 17.249876 22.192738 -20.358816 49.968636 -16.737061 -16.736551 28.491499 -0.001586 -12.699623 0.003229 15.836949 -17.391136 2.72953 -0.118133 -1.517698 -4.279057 -5.044133 -5.621016 -2.956681 -0.001603 -11.034854 -0.003257 -6.119925 -15.925926 -3.855511 0.004352 -0.003692 0.000175 -10.294271 -5.682911 -4.344129 11.027073 -11.316339 -2.371436 -1.381227 -14.264718 -6.347622 -0.61374 -26.9811 -3.839812 -4.435252 -49.430294 -3.386128 -13.723165 -7.365682 -3.726006 18.152254 -14.079391 -3.246886 0.008664 -18.815022 -0.018156 -0.426754 -8.462401 2.550124 -0.005218 0.004726 0.007467 -15.9476 -20.132843 -5.474026 30.460697 -7.192108 1.73179 -0.003794 -8.176482 -0.00042 -1.830089 -22.901636 -6.215528 -0.000906 0.010793 0.004494 172.575882 -0.348188 6.000113 23.205122 -0.203222 0.332003 -82.077812 24.131796 4.286223 -4.572715 1.149903 2.065862 -0.999716 -0.01529 -0.001888 -11.681277 -7.118171 15.677164 19.592825 -0.281734 0.349527 -78.369408 8.589268 -3.868093 -7.800169 0.76236 1.676053 -0.993735 -0.004064 -0.00139 
0.0 0.0 0.0 0.0 -0.0 0.0 14.762537 99.119865 1.927668 91.140282 -0.393752 -119.905212 0.77093 -1.539723 -0.326064 -10.845484 -0.377062 -0.457869 17.524914 0.784717 -2.156732 20.031542 -3.283136 2.549548 -2.557207 -0.261006 6.4595 -34.337639 -0.420356 8.642123 -0.001318 0.001749 0.003408 0.017707 0.010374 0.064676 0.028479 -0.007798 0.083634 0.075528 0.014968 0.045394 -117.416008 -76.057076 134.925888 36.685215 -51.333607 12.31179 41.709133 0.696739 0.048836 -7.543086 9.890529 -3.285151 17.663589 -26.304487 52.418121 -19.494589 -14.413255 29.432331 0.002355 -8.792748 -0.010317 16.288179 -18.329868 5.996043 -0.61578 -1.794257 -3.903689 -4.814648 -11.057541 -2.938687 -0.000203 -20.98488 -0.008233 -5.028577 -25.037758 -4.035994 -0.00275 0.00424 -0.005021 -10.657836 -5.697371 -3.573992 10.586097 -17.933563 -3.114981 -0.000439 -13.836846 -0.008028 -0.524341 -31.185326 -4.020535 -11.848866 -60.022049 7.304597 -14.014143 -7.160141 -2.890581 13.802303 -8.404621 -3.208451 0.348027 -34.255253 0.755004 -0.97823 -17.757666 2.613055 0.00459 -0.008154 -0.002376 -17.395292 -20.12591 -4.201304 21.817274 -1.637175 3.866236 -0.006117 -6.34762 0.009926 -1.703364 -22.612186 -6.215343 -0.005048 -0.008995 0.002126 60.282726 -77.28434 136.050125 36.234344 -52.102024 16.854103 45.687485 0.038595 0.332881 -0.265372 1.684252 17.97496 22.214808 -20.411743 50.00798 -16.671896 -16.735649 28.483416 0.012497 -12.694154 0.005108 15.813354 -17.569065 2.734503 -0.099379 -1.516757 -4.285032 -5.060851 -5.63023 -2.963524 -0.013064 -11.024359 0.028653 -6.136486 -15.910989 -3.865154 0.002283 -0.003615 0.012991 -10.27997 -5.700203 -4.343782 11.01053 -11.290936 -2.362812 -1.410647 -14.234048 -6.339875 -0.660698 -26.895638 -3.819702 -4.350702 -49.224789 -3.482509 -13.718283 -7.38962 -3.732472 18.124538 -14.049071 -3.231036 -0.022034 -18.814936 0.006604 -0.456375 -8.464561 2.560819 -0.001949 -0.004719 -0.00432 -15.943956 -20.140926 -5.483646 30.424908 -7.170866 1.761543 -0.00125 -8.177206 -0.000755 -1.866553 -22.905531 -6.182303 5.5e-05 -0.000777 0.011065 171.80632 -0.644366 7.350519 24.125645 -0.220941 0.34444 -82.322708 26.152143 4.053002 -4.692712 1.147678 2.067174 -1.002117 0.005713 0.002816 -11.487433 -7.867548 16.736252 18.350397 -0.290371 0.549656 -77.201859 10.597512 -5.521432 -7.627343 0.742296 1.696561 -1.002782 -0.000951 -0.001573 
0.0 0.0 0.0 0.0 -0.0 0.0 15.961997 98.888062 2.222378 91.054779 -0.661563 -116.372696 0.924648 -1.531347 -0.305682 -10.782379 -0.35977 -0.449969 17.690159 0.75978 -2.112006 19.710665 -3.100387 2.641801 -2.58638 -0.253316 6.057344 -34.726856 -0.287981 8.357934 -0.000917 0.001261 -0.000536 0.014318 0.003599 0.054794 0.008233 -0.004933 0.07071 0.052276 -0.001242 0.05865 -116.923836 -76.353142 134.132797 35.64843 -51.469421 14.009876 40.564785 0.714914 0.081468 -7.465508 8.732873 -3.238647 17.64823 -26.309906 52.418945 -19.499266 -14.404653 29.434254 -0.003883 -8.788049 -0.002787 16.207539 -18.135239 6.024255 -0.612724 -1.804675 -3.888712 -4.813656 -11.064775 -2.936879 0.006386 -20.999475 -0.014718 -5.019146 -25.073843 -4.033821 0.003113 -1.7e-05 -0.009187 -10.649842 -5.6972 -3.56264 10.600524 -17.947996 -3.117497 0.002764 -13.842015 -0.012778 -0.469019 -31.215014 -4.046374 -11.515197 -59.82692 7.238636 -14.001097 -7.158023 -2.861757 13.797865 -8.407542 -3.231003 0.362009 -34.235451 0.75128 -0.95904 -17.738041 2.621335 0.004535 0.009943 0.001891 -17.360256 -20.110476 -4.213873 21.766493 -1.650908 3.886962 0.000917 -6.339142 -0.012337 -1.694993 -22.598097 -6.201962 6.8e-05 0.002916 0.001151 60.724037 -77.721382 135.633591 37.149544 -52.144588 15.39203 45.460075 -0.08261 0.28848 -0.624373 1.705737 18.126806 22.218245 -20.41394 50.003677 -16.730158 -16.772022 28.518835 -0.009235 -12.69325 0.01358 15.884553 -17.703444 2.686092 -0.108835 -1.50689 -4.296211 -5.042774 -5.62939 -2.954392 0.011713 -11.037033 0.011943 -6.090499 -15.919983 -3.848416 -0.006458 -0.001774 0.006628 -10.297112 -5.683514 -4.35045 11.051813 -11.324922 -2.391701 -1.385186 -14.271946 -6.328322 -0.621294 -27.01442 -3.832891 -4.361129 -49.683506 -3.435826 -13.714385 -7.358807 -3.727249 18.165562 -14.090288 -3.276561 0.012224 -18.831284 0.001935 -0.413046 -8.486471 2.560713 -0.008855 0.002082 0.004515 -15.917026 -20.124792 -5.507033 30.430796 -7.205449 1.729563 0.001031 -8.193012 0.012073 -1.869244 -22.911707 -6.170804 0.000485 0.009384 0.003722 171.133133 -0.993462 8.871222 25.252483 -0.21021 0.309231 -83.029724 27.735226 3.310824 -4.732536 1.133116 2.088318 -0.997654 -0.007299 -0.004621 -11.055023 -8.282047 17.173311 18.235836 -0.271002 0.728724 -75.79953 12.381327 -7.0174 -7.522646 0.72643 1.680229 -0.998347 0.000154 -0.000121 
